<svg width="3690" height="961" viewBox="0 0 3690 961" fill="none" xmlns="http://www.w3.org/2000/svg">
<path d="M1280.31 116.709V840.909H1575.09C1780.11 840.909 1904.55 691.989 1904.55 478.809C1904.55 265.629 1780.11 116.709 1575.09 116.709H1280.31ZM1553.67 237.069C1677.09 237.069 1757.67 319.689 1757.67 478.809C1757.67 637.929 1677.09 720.549 1553.67 720.549H1423.11V237.069H1553.67Z" fill="white"/>
<path d="M2179.72 302.349C2078.74 302.349 2002.24 341.109 1935.94 419.649L2019.58 496.149C2051.2 465.549 2078.74 444.129 2100.16 430.869C2121.58 417.609 2149.12 411.489 2181.76 411.489C2242.96 411.489 2279.68 441.069 2279.68 491.049V503.289L2157.28 525.729C2018.56 550.209 1931.86 599.169 1931.86 709.329C1931.86 808.269 2011.42 858.249 2118.52 858.249C2197.06 858.249 2254.18 831.729 2286.82 786.849V840.909H2406.16V489.009C2406.16 375.789 2325.58 302.349 2179.72 302.349ZM2140.96 752.169C2090.98 752.169 2061.4 732.789 2061.4 700.149C2061.4 655.269 2103.22 635.889 2191.96 616.509L2279.68 598.149V628.749C2279.68 713.409 2217.46 752.169 2140.96 752.169Z" fill="white"/>
<path d="M3058.91 318.669L3017.09 490.029C3002.81 548.169 2986.49 625.689 2967.11 722.589C2947.73 632.829 2930.39 555.309 2913.05 490.029L2868.17 318.669H2745.77L2700.89 490.029C2684.57 552.249 2667.23 629.769 2647.85 720.549C2627.45 618.549 2611.13 542.049 2597.87 490.029L2556.05 318.669H2416.31L2561.15 840.909H2719.25L2755.97 699.129C2771.27 638.949 2787.59 567.549 2803.91 486.969C2821.25 564.489 2837.57 634.869 2854.91 699.129L2893.67 840.909H3050.75L3195.59 318.669H3058.91Z" fill="white"/>
<path d="M3502.6 302.349C3433.24 302.349 3379.18 329.889 3345.52 378.849V319.689H3222.1V840.909H3354.7V526.749C3354.7 461.469 3398.56 416.589 3459.76 416.589C3521.98 416.589 3556.66 454.329 3556.66 523.689V840.909H3689.26V483.909C3689.26 374.769 3620.92 302.349 3502.6 302.349Z" fill="white"/>
<path fill-rule="evenodd" clip-rule="evenodd" d="M0 664.558V510.912C0 428.068 67.1577 360.911 150.001 360.911C232.844 360.911 300.002 428.068 300.002 510.912V660.915H450.007C532.848 660.915 600.004 728.071 600.004 810.912C600.004 893.753 532.848 960.908 450.007 960.908H296.35H0V664.558Z" fill="white"/>
<path fill-rule="evenodd" clip-rule="evenodd" d="M404.855 0.908203H959.991V556.043H660.004V300.91H404.855V0.908203Z" fill="white"/>
</svg>
